<svg width="135" height="64" viewBox="0 0 135 64" fill="none" xmlns="http://www.w3.org/2000/svg">
<g filter="url(#filter0_d_1_15326)">
<rect x="4.56836" y="0.5" width="125" height="55" rx="9.5" stroke="#091931" shape-rendering="crispEdges"/>
<path d="M33.5343 25H31.7729C31.6687 24.4934 31.4864 24.0483 31.226 23.6648C30.9703 23.2812 30.6578 22.9593 30.2885 22.6989C29.9239 22.4337 29.5191 22.2348 29.074 22.1023C28.629 21.9697 28.165 21.9034 27.682 21.9034C26.8013 21.9034 26.0035 22.1259 25.2885 22.571C24.5783 23.0161 24.0125 23.6719 23.5911 24.5384C23.1744 25.4048 22.9661 26.4678 22.9661 27.7273C22.9661 28.9867 23.1744 30.0497 23.5911 30.9162C24.0125 31.7827 24.5783 32.4384 25.2885 32.8835C26.0035 33.3286 26.8013 33.5511 27.682 33.5511C28.165 33.5511 28.629 33.4848 29.074 33.3523C29.5191 33.2197 29.9239 33.0232 30.2885 32.7628C30.6578 32.4976 30.9703 32.1733 31.226 31.7898C31.4864 31.4015 31.6687 30.9564 31.7729 30.4545H33.5343C33.4017 31.1979 33.1602 31.8632 32.8098 32.4503C32.4595 33.0374 32.0239 33.5369 31.503 33.9489C30.9822 34.3561 30.3974 34.6662 29.7488 34.8793C29.1048 35.0923 28.4159 35.1989 27.682 35.1989C26.4415 35.1989 25.3382 34.8958 24.3723 34.2898C23.4064 33.6837 22.6465 32.822 22.0925 31.7045C21.5385 30.5871 21.2615 29.2614 21.2615 27.7273C21.2615 26.1932 21.5385 24.8674 22.0925 23.75C22.6465 22.6326 23.4064 21.7708 24.3723 21.1648C25.3382 20.5587 26.4415 20.2557 27.682 20.2557C28.4159 20.2557 29.1048 20.3622 29.7488 20.5753C30.3974 20.7884 30.9822 21.1009 31.503 21.5128C32.0239 21.92 32.4595 22.4171 32.8098 23.0043C33.1602 23.5866 33.4017 24.2519 33.5343 25ZM39.3635 35.2557C38.6722 35.2557 38.0448 35.1255 37.4814 34.8651C36.9179 34.5999 36.4705 34.2188 36.139 33.7216C35.8076 33.2197 35.6419 32.6136 35.6419 31.9034C35.6419 31.2784 35.765 30.7718 36.0112 30.3835C36.2574 29.9905 36.5865 29.6828 36.9984 29.4602C37.4103 29.2377 37.8649 29.072 38.362 28.9631C38.8639 28.8494 39.3682 28.7595 39.8748 28.6932C40.5377 28.608 41.0751 28.544 41.487 28.5014C41.9037 28.4541 42.2067 28.3759 42.3961 28.267C42.5903 28.1581 42.6873 27.9687 42.6873 27.6989V27.642C42.6873 26.9413 42.4956 26.3968 42.112 26.0085C41.7333 25.6203 41.158 25.4261 40.3862 25.4261C39.586 25.4261 38.9586 25.6013 38.5041 25.9517C38.0495 26.3021 37.7299 26.6761 37.5453 27.0739L35.9544 26.5057C36.2385 25.8428 36.6172 25.3267 37.0907 24.9574C37.569 24.5833 38.0898 24.3229 38.6532 24.1761C39.2214 24.0246 39.7801 23.9489 40.3294 23.9489C40.6797 23.9489 41.0822 23.9915 41.5368 24.0767C41.996 24.1572 42.4387 24.3253 42.8649 24.581C43.2958 24.8366 43.6532 25.2225 43.9373 25.7386C44.2214 26.2547 44.3635 26.946 44.3635 27.8125V35H42.6873V33.5227H42.6021C42.4885 33.7595 42.2991 34.0128 42.0339 34.2827C41.7688 34.5526 41.416 34.7822 40.9757 34.9716C40.5353 35.161 39.9979 35.2557 39.3635 35.2557ZM39.6191 33.75C40.282 33.75 40.8407 33.6198 41.2953 33.3594C41.7546 33.099 42.1002 32.7628 42.3322 32.3509C42.569 31.9389 42.6873 31.5057 42.6873 31.0511V29.517C42.6163 29.6023 42.46 29.6804 42.2186 29.7514C41.9818 29.8177 41.7072 29.8769 41.3947 29.929C41.0869 29.9763 40.7863 30.0189 40.4927 30.0568C40.2039 30.09 39.9695 30.1184 39.7896 30.142C39.354 30.1989 38.9468 30.2912 38.568 30.419C38.194 30.5421 37.8909 30.7292 37.6589 30.9801C37.4316 31.2263 37.318 31.5625 37.318 31.9886C37.318 32.571 37.5334 33.0114 37.9643 33.3097C38.3999 33.6032 38.9515 33.75 39.6191 33.75ZM49.0989 28.4375V35H47.4228V24.0909H49.0421V25.7955H49.1841C49.4398 25.2415 49.8281 24.7964 50.3489 24.4602C50.8697 24.1193 51.5421 23.9489 52.3659 23.9489C53.1046 23.9489 53.7509 24.1004 54.3049 24.4034C54.8588 24.7017 55.2897 25.1562 55.5975 25.767C55.9052 26.3731 56.0591 27.1402 56.0591 28.0682V35H54.383V28.1818C54.383 27.3248 54.1605 26.6572 53.7154 26.179C53.2703 25.696 52.6595 25.4545 51.883 25.4545C51.348 25.4545 50.8697 25.5705 50.4483 25.8026C50.0317 26.0346 49.7026 26.3731 49.4611 26.8182C49.2196 27.2633 49.0989 27.803 49.0989 28.4375ZM63.5538 35.2273C62.5311 35.2273 61.6504 34.9858 60.9118 34.5028C60.1731 34.0199 59.6049 33.3546 59.2072 32.5071C58.8095 31.6596 58.6106 30.6913 58.6106 29.6023C58.6106 28.4943 58.8142 27.5166 59.2214 26.669C59.6333 25.8168 60.2063 25.1515 60.9402 24.6733C61.6788 24.1903 62.5405 23.9489 63.5254 23.9489C64.2924 23.9489 64.9837 24.0909 65.5993 24.375C66.2148 24.6591 66.719 25.0568 67.112 25.5682C67.505 26.0795 67.7489 26.6761 67.8436 27.358H66.1674C66.0396 26.8608 65.7555 26.4205 65.3152 26.0369C64.8796 25.6487 64.2924 25.4545 63.5538 25.4545C62.9004 25.4545 62.3275 25.625 61.835 25.9659C61.3474 26.3021 60.9662 26.7779 60.6916 27.3935C60.4217 28.0043 60.2868 28.7216 60.2868 29.5455C60.2868 30.3883 60.4193 31.1222 60.6845 31.7472C60.9544 32.3722 61.3332 32.8575 61.8208 33.2031C62.3133 33.5488 62.8909 33.7216 63.5538 33.7216C63.9894 33.7216 64.3848 33.6458 64.7399 33.4943C65.095 33.3428 65.3957 33.125 65.6419 32.8409C65.8881 32.5568 66.0633 32.2159 66.1674 31.8182H67.8436C67.7489 32.4621 67.5145 33.0421 67.1404 33.5582C66.7711 34.0696 66.2811 34.4768 65.6703 34.7798C65.0642 35.0781 64.3587 35.2273 63.5538 35.2273ZM74.8677 35.2273C73.8166 35.2273 72.9099 34.9953 72.1475 34.5312C71.39 34.0625 70.8052 33.4091 70.3933 32.571C69.9861 31.7282 69.7825 30.7481 69.7825 29.6307C69.7825 28.5133 69.9861 27.5284 70.3933 26.6761C70.8052 25.8191 71.3781 25.1515 72.112 24.6733C72.8507 24.1903 73.7124 23.9489 74.6973 23.9489C75.2654 23.9489 75.8265 24.0436 76.3805 24.233C76.9345 24.4223 77.4387 24.7301 77.8933 25.1562C78.3478 25.5777 78.7101 26.1364 78.9799 26.8324C79.2498 27.5284 79.3848 28.3854 79.3848 29.4034V30.1136H70.9757V28.6648H77.6802C77.6802 28.0492 77.5571 27.5 77.3109 27.017C77.0694 26.5341 76.7238 26.1529 76.274 25.8736C75.8289 25.5942 75.3033 25.4545 74.6973 25.4545C74.0297 25.4545 73.452 25.6203 72.9643 25.9517C72.4814 26.2784 72.1097 26.7045 71.8493 27.2301C71.5888 27.7557 71.4586 28.3191 71.4586 28.9205V29.8864C71.4586 30.7102 71.6007 31.4086 71.8848 31.9815C72.1736 32.5497 72.5737 32.983 73.085 33.2812C73.5964 33.5748 74.1906 33.7216 74.8677 33.7216C75.3081 33.7216 75.7058 33.66 76.0609 33.5369C76.4208 33.4091 76.7309 33.2197 76.9913 32.9688C77.2517 32.7131 77.4529 32.3958 77.595 32.017L79.2143 32.4716C79.0439 33.0208 78.7574 33.5038 78.3549 33.9205C77.9525 34.3324 77.4553 34.6544 76.8635 34.8864C76.2716 35.1136 75.6064 35.2273 74.8677 35.2273ZM83.6106 20.4545V35H81.9345V20.4545H83.6106Z" fill="#091931"/>
<path d="M102.069 28.0001L107.312 33.2431M96.8262 33.2431L102.069 28.0001L96.8262 33.2431ZM107.312 22.7571L102.068 28.0001L107.312 22.7571ZM102.068 28.0001L96.8262 22.7571L102.068 28.0001Z" stroke="#091931" stroke-width="2" stroke-linecap="round" stroke-linejoin="round"/>
</g>
<defs>
<filter id="filter0_d_1_15326" x="0.0683594" y="0" width="134" height="64" filterUnits="userSpaceOnUse" color-interpolation-filters="sRGB">
<feFlood flood-opacity="0" result="BackgroundImageFix"/>
<feColorMatrix in="SourceAlpha" type="matrix" values="0 0 0 0 0 0 0 0 0 0 0 0 0 0 0 0 0 0 127 0" result="hardAlpha"/>
<feOffset dy="4"/>
<feGaussianBlur stdDeviation="2"/>
<feComposite in2="hardAlpha" operator="out"/>
<feColorMatrix type="matrix" values="0 0 0 0 0 0 0 0 0 0 0 0 0 0 0 0 0 0 0.25 0"/>
<feBlend mode="normal" in2="BackgroundImageFix" result="effect1_dropShadow_1_15326"/>
<feBlend mode="normal" in="SourceGraphic" in2="effect1_dropShadow_1_15326" result="shape"/>
</filter>
</defs>
</svg>
