<svg width="127" height="56" viewBox="0 0 127 56" fill="none" xmlns="http://www.w3.org/2000/svg">
<rect x="0.568359" y="0.5" width="125" height="55" rx="9.5" stroke="#2A3647"/>
<path d="M29.5343 25H27.7729C27.6687 24.4934 27.4864 24.0483 27.226 23.6648C26.9703 23.2812 26.6578 22.9593 26.2885 22.6989C25.9239 22.4337 25.5191 22.2348 25.074 22.1023C24.629 21.9697 24.165 21.9034 23.682 21.9034C22.8013 21.9034 22.0035 22.1259 21.2885 22.571C20.5783 23.0161 20.0125 23.6719 19.5911 24.5384C19.1744 25.4048 18.9661 26.4678 18.9661 27.7273C18.9661 28.9867 19.1744 30.0497 19.5911 30.9162C20.0125 31.7827 20.5783 32.4384 21.2885 32.8835C22.0035 33.3286 22.8013 33.5511 23.682 33.5511C24.165 33.5511 24.629 33.4848 25.074 33.3523C25.5191 33.2197 25.9239 33.0232 26.2885 32.7628C26.6578 32.4976 26.9703 32.1733 27.226 31.7898C27.4864 31.4015 27.6687 30.9564 27.7729 30.4545H29.5343C29.4017 31.1979 29.1602 31.8632 28.8098 32.4503C28.4595 33.0374 28.0239 33.5369 27.503 33.9489C26.9822 34.3561 26.3974 34.6662 25.7488 34.8793C25.1048 35.0923 24.4159 35.1989 23.682 35.1989C22.4415 35.1989 21.3382 34.8958 20.3723 34.2898C19.4064 33.6837 18.6465 32.822 18.0925 31.7045C17.5385 30.5871 17.2615 29.2614 17.2615 27.7273C17.2615 26.1932 17.5385 24.8674 18.0925 23.75C18.6465 22.6326 19.4064 21.7708 20.3723 21.1648C21.3382 20.5587 22.4415 20.2557 23.682 20.2557C24.4159 20.2557 25.1048 20.3622 25.7488 20.5753C26.3974 20.7884 26.9822 21.1009 27.503 21.5128C28.0239 21.92 28.4595 22.4171 28.8098 23.0043C29.1602 23.5866 29.4017 24.2519 29.5343 25ZM35.3635 35.2557C34.6722 35.2557 34.0448 35.1255 33.4814 34.8651C32.9179 34.5999 32.4705 34.2188 32.139 33.7216C31.8076 33.2197 31.6419 32.6136 31.6419 31.9034C31.6419 31.2784 31.765 30.7718 32.0112 30.3835C32.2574 29.9905 32.5865 29.6828 32.9984 29.4602C33.4103 29.2377 33.8649 29.072 34.362 28.9631C34.8639 28.8494 35.3682 28.7595 35.8748 28.6932C36.5377 28.608 37.0751 28.544 37.487 28.5014C37.9037 28.4541 38.2067 28.3759 38.3961 28.267C38.5903 28.1581 38.6873 27.9687 38.6873 27.6989V27.642C38.6873 26.9413 38.4956 26.3968 38.112 26.0085C37.7333 25.6203 37.158 25.4261 36.3862 25.4261C35.586 25.4261 34.9586 25.6013 34.5041 25.9517C34.0495 26.3021 33.7299 26.6761 33.5453 27.0739L31.9544 26.5057C32.2385 25.8428 32.6172 25.3267 33.0907 24.9574C33.569 24.5833 34.0898 24.3229 34.6532 24.1761C35.2214 24.0246 35.7801 23.9489 36.3294 23.9489C36.6797 23.9489 37.0822 23.9915 37.5368 24.0767C37.996 24.1572 38.4387 24.3253 38.8649 24.581C39.2958 24.8366 39.6532 25.2225 39.9373 25.7386C40.2214 26.2547 40.3635 26.946 40.3635 27.8125V35H38.6873V33.5227H38.6021C38.4885 33.7595 38.2991 34.0128 38.0339 34.2827C37.7688 34.5526 37.416 34.7822 36.9757 34.9716C36.5353 35.161 35.9979 35.2557 35.3635 35.2557ZM35.6191 33.75C36.282 33.75 36.8407 33.6198 37.2953 33.3594C37.7546 33.099 38.1002 32.7628 38.3322 32.3509C38.569 31.9389 38.6873 31.5057 38.6873 31.0511V29.517C38.6163 29.6023 38.46 29.6804 38.2186 29.7514C37.9818 29.8177 37.7072 29.8769 37.3947 29.929C37.0869 29.9763 36.7863 30.0189 36.4927 30.0568C36.2039 30.09 35.9695 30.1184 35.7896 30.142C35.354 30.1989 34.9468 30.2912 34.568 30.419C34.194 30.5421 33.8909 30.7292 33.6589 30.9801C33.4316 31.2263 33.318 31.5625 33.318 31.9886C33.318 32.571 33.5334 33.0114 33.9643 33.3097C34.3999 33.6032 34.9515 33.75 35.6191 33.75ZM45.0989 28.4375V35H43.4228V24.0909H45.0421V25.7955H45.1841C45.4398 25.2415 45.8281 24.7964 46.3489 24.4602C46.8697 24.1193 47.5421 23.9489 48.3659 23.9489C49.1046 23.9489 49.7509 24.1004 50.3049 24.4034C50.8588 24.7017 51.2897 25.1562 51.5975 25.767C51.9052 26.3731 52.0591 27.1402 52.0591 28.0682V35H50.383V28.1818C50.383 27.3248 50.1605 26.6572 49.7154 26.179C49.2703 25.696 48.6595 25.4545 47.883 25.4545C47.348 25.4545 46.8697 25.5705 46.4483 25.8026C46.0317 26.0346 45.7026 26.3731 45.4611 26.8182C45.2196 27.2633 45.0989 27.803 45.0989 28.4375ZM59.5538 35.2273C58.5311 35.2273 57.6504 34.9858 56.9118 34.5028C56.1731 34.0199 55.6049 33.3546 55.2072 32.5071C54.8095 31.6596 54.6106 30.6913 54.6106 29.6023C54.6106 28.4943 54.8142 27.5166 55.2214 26.669C55.6333 25.8168 56.2063 25.1515 56.9402 24.6733C57.6788 24.1903 58.5405 23.9489 59.5254 23.9489C60.2924 23.9489 60.9837 24.0909 61.5993 24.375C62.2148 24.6591 62.719 25.0568 63.112 25.5682C63.505 26.0795 63.7489 26.6761 63.8436 27.358H62.1674C62.0396 26.8608 61.7555 26.4205 61.3152 26.0369C60.8796 25.6487 60.2924 25.4545 59.5538 25.4545C58.9004 25.4545 58.3275 25.625 57.835 25.9659C57.3474 26.3021 56.9662 26.7779 56.6916 27.3935C56.4217 28.0043 56.2868 28.7216 56.2868 29.5455C56.2868 30.3883 56.4193 31.1222 56.6845 31.7472C56.9544 32.3722 57.3332 32.8575 57.8208 33.2031C58.3133 33.5488 58.8909 33.7216 59.5538 33.7216C59.9894 33.7216 60.3848 33.6458 60.7399 33.4943C61.095 33.3428 61.3957 33.125 61.6419 32.8409C61.8881 32.5568 62.0633 32.2159 62.1674 31.8182H63.8436C63.7489 32.4621 63.5145 33.0421 63.1404 33.5582C62.7711 34.0696 62.2811 34.4768 61.6703 34.7798C61.0642 35.0781 60.3587 35.2273 59.5538 35.2273ZM70.8677 35.2273C69.8166 35.2273 68.9099 34.9953 68.1475 34.5312C67.39 34.0625 66.8052 33.4091 66.3933 32.571C65.9861 31.7282 65.7825 30.7481 65.7825 29.6307C65.7825 28.5133 65.9861 27.5284 66.3933 26.6761C66.8052 25.8191 67.3781 25.1515 68.112 24.6733C68.8507 24.1903 69.7124 23.9489 70.6973 23.9489C71.2654 23.9489 71.8265 24.0436 72.3805 24.233C72.9345 24.4223 73.4387 24.7301 73.8933 25.1562C74.3478 25.5777 74.7101 26.1364 74.9799 26.8324C75.2498 27.5284 75.3848 28.3854 75.3848 29.4034V30.1136H66.9757V28.6648H73.6802C73.6802 28.0492 73.5571 27.5 73.3109 27.017C73.0694 26.5341 72.7238 26.1529 72.274 25.8736C71.8289 25.5942 71.3033 25.4545 70.6973 25.4545C70.0297 25.4545 69.452 25.6203 68.9643 25.9517C68.4814 26.2784 68.1097 26.7045 67.8493 27.2301C67.5888 27.7557 67.4586 28.3191 67.4586 28.9205V29.8864C67.4586 30.7102 67.6007 31.4086 67.8848 31.9815C68.1736 32.5497 68.5737 32.983 69.085 33.2812C69.5964 33.5748 70.1906 33.7216 70.8677 33.7216C71.3081 33.7216 71.7058 33.66 72.0609 33.5369C72.4208 33.4091 72.7309 33.2197 72.9913 32.9688C73.2517 32.7131 73.4529 32.3958 73.595 32.017L75.2143 32.4716C75.0439 33.0208 74.7574 33.5038 74.3549 33.9205C73.9525 34.3324 73.4553 34.6544 72.8635 34.8864C72.2716 35.1136 71.6064 35.2273 70.8677 35.2273ZM79.6106 20.4545V35H77.9345V20.4545H79.6106Z" fill="#2A3647"/>
<path d="M98.0692 28.0001L103.312 33.2431M92.8262 33.2431L98.0692 28.0001L92.8262 33.2431ZM103.312 22.7571L98.0682 28.0001L103.312 22.7571ZM98.0682 28.0001L92.8262 22.7571L98.0682 28.0001Z" stroke="#2A3647" stroke-width="2" stroke-linecap="round" stroke-linejoin="round"/>
</svg>
