<svg width="25" height="25" viewBox="0 0 25 25" fill="none" xmlns="http://www.w3.org/2000/svg">
<mask id="mask0_128_4196" style="mask-type:alpha" maskUnits="userSpaceOnUse" x="0" y="0" width="25" height="25">
<rect x="0.666626" y="0.5" width="24" height="24" fill="#D9D9D9"/>
</mask>
<g mask="url(#mask0_128_4196)">
<path d="M3.00779 24.5151C2.36387 24.5151 1.81264 24.2858 1.35409 23.8273C0.895535 23.3687 0.66626 22.8175 0.66626 22.1736V5.78283C0.66626 5.13891 0.895535 4.58767 1.35409 4.12912C1.81264 3.67057 2.36387 3.4413 3.00779 3.4413H13.4569L11.1154 5.78283H3.00779V22.1736H19.3985V14.0367L21.7401 11.6952V22.1736C21.7401 22.8175 21.5108 23.3687 21.0522 23.8273C20.5937 24.2858 20.0425 24.5151 19.3985 24.5151H3.00779ZM16.0911 4.11449L17.7595 5.75356L10.0324 13.4806V15.149H11.6715L19.4278 7.39264L21.0961 9.03171L13.3398 16.788C13.1252 17.0027 12.8764 17.1734 12.5935 17.3003C12.3105 17.4271 12.0129 17.4905 11.7007 17.4905H8.86163C8.52991 17.4905 8.25186 17.3783 8.02746 17.1539C7.80306 16.9295 7.69086 16.6515 7.69086 16.3197V13.4806C7.69086 13.1684 7.7494 12.8709 7.86648 12.5879C7.98356 12.305 8.14941 12.0562 8.36406 11.8416L16.0911 4.11449ZM21.0961 9.03171L16.0911 4.11449L19.018 1.18757C19.4863 0.719261 20.0473 0.485107 20.701 0.485107C21.3547 0.485107 21.9059 0.719261 22.3547 1.18757L23.9938 2.85591C24.4426 3.30471 24.667 3.85106 24.667 4.49499C24.667 5.13891 24.4426 5.68527 23.9938 6.13406L21.0961 9.03171Z" fill="#CDCDCD"/>
</g>
</svg>
