<svg width="33" height="33" viewBox="0 0 33 33" fill="none" xmlns="http://www.w3.org/2000/svg">
<mask id="mask0_192_6161" style="mask-type:alpha" maskUnits="userSpaceOnUse" x="0" y="0" width="33" height="33">
<rect x="0.5" y="0.5" width="32" height="32" fill="#D9D9D9"/>
</mask>
<g mask="url(#mask0_192_6161)">
<path d="M25.8293 19.1667C25.5134 19.1667 25.2499 19.0602 25.0388 18.8473C24.8276 18.6343 24.7221 18.3704 24.7221 18.0556V14.9445H21.611C21.2962 14.9445 21.0323 14.8376 20.8193 14.6239C20.6063 14.4102 20.4999 14.1454 20.4999 13.8295C20.4999 13.5136 20.6063 13.2501 20.8193 13.0389C21.0323 12.8278 21.2962 12.7223 21.611 12.7223H24.7221V9.61115C24.7221 9.29635 24.8289 9.03246 25.0427 8.81948C25.2564 8.60653 25.5212 8.50005 25.8371 8.50005C26.153 8.50005 26.4165 8.60653 26.6276 8.81948C26.8387 9.03246 26.9443 9.29635 26.9443 9.61115V12.7223H30.0554C30.3702 12.7223 30.6341 12.8291 30.8471 13.0428C31.06 13.2566 31.1665 13.5214 31.1665 13.8373C31.1665 14.1532 31.06 14.4167 30.8471 14.6278C30.6341 14.8389 30.3702 14.9445 30.0554 14.9445H26.9443V18.0556C26.9443 18.3704 26.8374 18.6343 26.6237 18.8473C26.41 19.0602 26.1452 19.1667 25.8293 19.1667ZM12.4999 16.4778C11.0332 16.4778 9.81467 15.9926 8.84429 15.0223C7.87394 14.0519 7.38876 12.8334 7.38876 11.3667C7.38876 9.90005 7.87394 8.68154 8.84429 7.71118C9.81467 6.7408 11.0332 6.25562 12.4999 6.25562C13.9665 6.25562 15.185 6.7408 16.1554 7.71118C17.1258 8.68154 17.611 9.90005 17.611 11.3667C17.611 12.8334 17.1258 14.0519 16.1554 15.0223C15.185 15.9926 13.9665 16.4778 12.4999 16.4778ZM2.94429 27.1667C2.62949 27.1667 2.3656 27.0602 2.15262 26.8473C1.93967 26.6343 1.83319 26.3704 1.83319 26.0556V23.8334C1.83319 23.063 2.03134 22.3612 2.42762 21.7279C2.82394 21.0945 3.36654 20.6186 4.05542 20.3C5.6258 19.5815 7.08016 19.0649 8.41849 18.75C9.75685 18.4352 11.1161 18.2778 12.4963 18.2778C13.8764 18.2778 15.2369 18.4352 16.5776 18.75C17.9184 19.0649 19.3665 19.5815 20.9221 20.3C21.611 20.6334 22.1573 21.113 22.561 21.7389C22.9647 22.3649 23.1665 23.063 23.1665 23.8334V26.0556C23.1665 26.3704 23.06 26.6343 22.8471 26.8473C22.6341 27.0602 22.3702 27.1667 22.0554 27.1667H2.94429ZM4.05539 24.9445H20.9443V23.8334C20.9443 23.5149 20.8647 23.2149 20.7054 22.9334C20.5462 22.6519 20.3073 22.4408 19.9888 22.3C18.5517 21.5963 17.2628 21.1204 16.1221 20.8723C14.9813 20.6241 13.7739 20.5 12.4999 20.5C11.2258 20.5 10.0184 20.6278 8.87762 20.8834C7.73689 21.1389 6.4406 21.6112 4.98876 22.3C4.69985 22.4408 4.47206 22.6519 4.30539 22.9334C4.13872 23.2149 4.05539 23.5149 4.05539 23.8334V24.9445ZM12.4999 14.2556C13.3221 14.2556 14.0091 13.9797 14.561 13.4278C15.1128 12.876 15.3888 12.1889 15.3888 11.3667C15.3888 10.5445 15.1128 9.85746 14.561 9.30562C14.0091 8.75375 13.3221 8.47782 12.4999 8.47782C11.6776 8.47782 10.9906 8.75375 10.4388 9.30562C9.88689 9.85746 9.61096 10.5445 9.61096 11.3667C9.61096 12.1889 9.88689 12.876 10.4388 13.4278C10.9906 13.9797 11.6776 14.2556 12.4999 14.2556Z" fill="white"/>
</g>
</svg>
