<svg width="18" height="8" viewBox="0 0 18 8" fill="none" xmlns="http://www.w3.org/2000/svg">
<g clip-path="url(#clip0_1098_3424)">
<path d="M16.5685 7.16667L1.43151 7.16667C1.18446 7.16667 0.947523 7.06782 0.772832 6.89186C0.598141 6.7159 0.5 6.47725 0.5 6.2284C0.5 5.97956 0.598141 5.7409 0.772832 5.56494C0.947523 5.38898 1.18446 5.29013 1.43151 5.29013L16.5685 5.29013C16.8155 5.29013 17.0525 5.38898 17.2272 5.56494C17.4019 5.7409 17.5 5.97956 17.5 6.2284C17.5 6.47725 17.4019 6.7159 17.2272 6.89186C17.0525 7.06782 16.8155 7.16667 16.5685 7.16667Z" fill="#FFA800"/>
<path d="M16.5685 2.70989L1.43151 2.70989C1.18446 2.70989 0.947523 2.61103 0.772832 2.43507C0.598141 2.25911 0.5 2.02046 0.5 1.77162C0.5 1.52277 0.598141 1.28412 0.772832 1.10816C0.947523 0.932197 1.18446 0.833344 1.43151 0.833344L16.5685 0.833344C16.8155 0.833344 17.0525 0.932197 17.2272 1.10816C17.4019 1.28412 17.5 1.52277 17.5 1.77162C17.5 2.02046 17.4019 2.25911 17.2272 2.43507C17.0525 2.61103 16.8155 2.70989 16.5685 2.70989Z" fill="#FFA800"/>
</g>
<defs>
<clipPath id="clip0_1098_3424">
<rect width="17" height="6.33333" fill="white" transform="translate(0.5 0.833344)"/>
</clipPath>
</defs>
</svg>
