<svg width="25" height="25" viewBox="0 0 25 25" fill="none" xmlns="http://www.w3.org/2000/svg">
<path d="M18.7949 4.19232L18.7949 20.8077C18.7944 21.2972 18.5997 21.7665 18.2536 22.1126C17.9075 22.4587 17.4382 22.6534 16.9487 22.6539L13.2564 22.6539C12.7669 22.6534 12.2976 22.4587 11.9515 22.1126C11.6054 21.7665 11.4107 21.2972 11.4102 20.8077L11.4102 4.19232C11.4107 3.70284 11.6054 3.23354 11.9515 2.88743C12.2976 2.54131 12.7669 2.34665 13.2564 2.34616L16.9487 2.34616C17.4382 2.34665 17.9075 2.54131 18.2536 2.88743C18.5997 3.23354 18.7944 3.70284 18.7949 4.19232ZM13.2564 20.8077L16.9487 20.8077L16.9487 4.19232L13.2564 4.19232L13.2564 20.8077ZM13.2564 4.19232L13.2564 20.8077C13.2559 21.2972 13.0612 21.7665 12.7151 22.1126C12.369 22.4587 11.8997 22.6533 11.4102 22.6538L7.71793 22.6538C7.22845 22.6533 6.75916 22.4587 6.41304 22.1126C6.06693 21.7665 5.87226 21.2972 5.87177 20.8077L5.87177 4.1923C5.87226 3.70282 6.06692 3.23353 6.41304 2.88741C6.75915 2.5413 7.22845 2.34663 7.71793 2.34615L11.4102 2.34615C11.8997 2.34663 12.369 2.5413 12.7151 2.88741C13.0612 3.23353 13.2559 3.70284 13.2564 4.19232ZM7.71793 20.8077L11.4102 20.8077L11.4102 4.19232L7.71793 4.1923L7.71793 20.8077ZM7.71793 4.1923L7.71793 20.8077C7.71744 21.2972 7.52278 21.7665 7.17666 22.1126C6.83055 22.4587 6.36126 22.6533 5.87177 22.6538L2.17947 22.6538C1.68999 22.6533 1.22069 22.4587 0.874579 22.1126C0.528463 21.7665 0.333802 21.2972 0.333313 20.8077L0.333312 4.1923C0.333801 3.70282 0.528463 3.23353 0.874578 2.88741C1.22069 2.5413 1.68999 2.34663 2.17947 2.34615L5.87177 2.34615C6.36125 2.34663 6.83055 2.5413 7.17666 2.88741C7.52278 3.23353 7.71744 3.70282 7.71793 4.1923ZM2.17947 20.8077L5.87177 20.8077L5.87177 4.1923L2.17947 4.1923L2.17947 20.8077Z" fill="#CDCDCD"/>
<path d="M24.3333 4.19252L24.3333 20.8079C24.3328 21.2974 24.1382 21.7667 23.792 22.1128C23.4459 22.4589 22.9766 22.6536 22.4872 22.6541L18.7949 22.6541C18.3054 22.6536 17.8361 22.4589 17.49 22.1128C17.1439 21.7667 16.9492 21.2972 16.9487 20.8077L16.9487 4.19232C16.9492 3.70284 17.1438 3.23375 17.49 2.88763C17.8361 2.54152 18.3054 2.34686 18.7949 2.34637L22.4872 2.34637C22.9766 2.34686 23.4459 2.54152 23.792 2.88763C24.1382 3.23375 24.3328 3.70304 24.3333 4.19252ZM18.7949 20.8077L22.4872 20.8079L22.4872 4.19252L18.7949 4.19232L18.7949 20.8077Z" fill="#CDCDCD"/>
</svg>
